<svg xmlns="http://www.w3.org/2000/svg" class="kiabi-logo" id="logo" style="enable-background:new 0 0 473.39 156.99;" viewBox="0 0 473.39 156.99" x="0px" y="0px" xmlns:xml="http://www.w3.org/XML/1998/namespace" xml:space="preserve" xmlns:xlink="http://www.w3.org/1999/xlink" version="1.1">
                <style type="text/css">.st0{fill:#040037;}</style>
                <g>
                    <g>
                        <path class="st0" d="M 258.29 3.22 c -1.9 -3.56 -4.03 -3.15 -5.93 -3.15 h -25.1 c -2.1 0 -3 -0.18 -1.75 2.39 c 0.78 1.58 4.57 8.56 4.57 8.56 c 0.86 1.76 0.48 1.79 -0.27 3 c -0.55 0.89 -43.39 72.82 -47.12 78.78 c -2.97 4.73 -3.92 5.7 0.82 5.7 h 5.87 c 2.73 0 3.13 0.04 6.23 -5.15 c 1.68 -2.79 14.27 -23.37 14.27 -23.37 h 49.63 c 1.38 0 2.21 1.15 2.48 1.64 c 3.04 5.77 7.71 14.64 11.01 20.87 c 1.99 3.76 3.44 5.94 6.15 5.94 h 24.87 c 4.72 0 4.55 -0.05 0.91 -6.62 C 300.25 83.25 264.83 15.55 258.29 3.22 M 214.66 60.18 l 20.06 -34.43 c 1.84 -3.39 1.59 -2.69 3.01 0 c 0.69 1.35 18.29 34.41 18.29 34.41 L 214.66 60.18 Z" />
                        <path class="st0" d="M 112.26 0.1 H 94.61 C 80.99 10.65 80.5 10.87 31.08 48.47 V 2.77 c 0 -1.51 -1.22 -2.72 -2.72 -2.72 H 2.72 C 1.22 0.05 0 1.26 0 2.77 V 95.7 c 0 1.5 1.22 2.73 2.72 2.73 h 25.64 c 1.51 0 2.72 -1.23 2.72 -2.73 V 55.61 c 7.5 7.45 48.25 42.84 48.25 42.84 h 33.55 c 2.55 0 2.55 -1.34 0.4 -3.16 C 83.13 69.71 66.84 55.57 60.41 49.92 c -2.9 -2.54 -4.36 -3.24 -2.15 -5.03 C 61.33 42.41 111.17 3.37 112.53 2 C 113.89 0.64 112.26 0.1 112.26 0.1" />
                        <path class="st0" d="M 159.94 0.05 h -25.39 c -1.59 0 -2.87 1.21 -2.87 2.72 v 92.93 c 0 1.5 1.28 2.74 2.87 2.74 h 25.39 c 1.58 0 2.87 -1.24 2.87 -2.74 V 2.76 C 162.8 1.26 161.52 0.05 159.94 0.05" />
                        <path class="st0" d="M 470.52 0.05 h -25.38 c -1.59 0 -2.87 1.21 -2.87 2.72 v 92.93 c 0 1.5 1.28 2.74 2.87 2.74 h 25.38 c 1.58 0 2.87 -1.24 2.87 -2.74 V 2.76 C 473.39 1.26 472.1 0.05 470.52 0.05" />
                        <path class="st0" d="M 398.97 46.14 c 4.36 -1.91 22.11 -3.45 22.11 -23.11 c 0 -22.66 -24.71 -22.49 -30.43 -23.03 l -61.9 0.01 c -1.52 0 -2.72 1.31 -2.72 2.81 v 93 c 0 1.52 1.21 2.61 2.72 2.61 l 55.5 -0.03 c 9.01 0 40.13 -3.15 40.92 -26.33 C 425.89 51.07 403.33 47.78 398.97 46.14 M 359.51 42.09 V 12.34 v -1.77 h 10.71 h 1.64 v 0.07 c 12.37 -0.07 17.8 7.84 17.8 16.55 s -6.52 16.63 -17.8 16.57 v 0.06 h -1.64 h -10.71 V 42.09 Z M 373.87 90.92 V 91 h -1.97 h -12.39 v -2.04 V 54.38 v -2.05 h 12.39 h 1.97 v 0.09 c 14.77 -0.09 21.28 9.12 21.28 19.25 C 395.15 81.8 387.35 91 373.87 90.92" />
                    </g>
                    <g>
                        <path class="st0" d="M 0.19 111.92 h 3.39 v 35.78 H 0.19 V 111.92 Z" />
                        <path class="st0" d="M 36.75 147.7 h -3.38 v -4.64 h -0.1 c -2.9 4.35 -7.54 5.27 -10.3 5.27 c -8.32 0 -14.22 -6.33 -14.22 -13.93 c 0 -7.06 5.56 -13.83 14.22 -13.83 c 2.85 0 7.5 0.92 10.3 5.32 h 0.1 v -4.64 h 3.38 V 147.7 Z M 22.97 145.29 c 5.71 0 10.59 -4.59 10.59 -10.78 c 0 -5.8 -4.5 -10.88 -10.59 -10.88 c -5.8 0 -10.83 4.21 -10.83 10.93 C 12.13 140.45 16.49 145.29 22.97 145.29 Z" />
                        <path class="st0" d="M 59.71 124.3 c 1.5 -2.37 4.11 -3.72 7.2 -3.72 c 3.82 0 7.06 1.84 8.9 5.08 c 2.08 -3.34 5.13 -5.08 8.9 -5.08 c 6.24 0 10.59 4.35 10.59 11.41 v 15.72 h -3.39 v -15.33 c 0 -5.66 -2.71 -8.75 -7.2 -8.75 c -4.5 0 -7.21 3.09 -7.21 8.75 v 15.33 h -3.38 v -15.33 c 0 -5.66 -2.71 -8.75 -7.21 -8.75 c -4.5 0 -7.2 3.09 -7.2 8.75 v 15.33 h -3.38 v -26.45 h 3.38 V 124.3 Z" />
                        <path class="st0" d="M 114.29 120.58 c 7.83 0 13.88 6.62 13.88 13.88 c 0 7.21 -5.95 13.88 -13.88 13.88 c -7.74 0 -13.78 -6.53 -13.78 -13.68 C 100.51 126.28 107.33 120.58 114.29 120.58 Z M 114.34 145.29 c 5.13 0 10.45 -4.06 10.45 -10.98 c 0 -6.96 -5.9 -10.69 -10.45 -10.69 c -4.83 0 -10.45 3.96 -10.45 10.97 C 103.9 140.74 108.87 145.29 114.34 145.29 Z" />
                        <path class="st0" d="M 160.03 147.7 h -3.39 v -4.64 h -0.1 c -2.81 4.21 -7.5 5.27 -10.3 5.27 c -8.32 0 -14.22 -6.33 -14.22 -13.93 c 0 -7.06 5.56 -13.83 14.22 -13.83 c 2.9 0 7.45 1.06 10.3 5.22 h 0.1 v -13.88 h 3.39 V 147.7 Z M 146.25 145.29 c 5.7 0 10.59 -4.59 10.59 -10.78 c 0 -5.8 -4.5 -10.88 -10.59 -10.88 c -5.8 0 -10.83 4.21 -10.83 10.93 C 135.42 140.45 139.77 145.29 146.25 145.29 Z" />
                        <path class="st0" d="M 168.58 135.71 c 0.24 5.17 5.08 9.57 10.25 9.57 c 4.84 -0.1 8.27 -2.95 9.48 -6.24 h 3.58 c -1.84 5.27 -6.92 9.28 -13.01 9.28 c -7.4 0 -13.78 -5.99 -13.78 -13.83 c 0 -7.49 6.04 -13.78 13.73 -13.92 c 5.8 0.05 9.92 3.48 11.8 6.77 c 1.55 2.52 2.08 5.08 2.08 7.4 c 0 0.34 -0.05 0.63 -0.05 0.97 H 168.58 Z M 189.23 132.66 c -1.06 -6.24 -6.14 -9.04 -10.35 -9.04 c -4.16 0 -9.33 2.81 -10.3 9.04 H 189.23 Z" />
                        <path class="st0" d="M 238.11 147.7 h -3.38 v -4.64 h -0.1 c -2.9 4.35 -7.55 5.27 -10.3 5.27 c -8.32 0 -14.22 -6.33 -14.22 -13.93 c 0 -7.06 5.56 -13.83 14.22 -13.83 c 2.86 0 7.5 0.92 10.3 5.32 h 0.1 v -4.64 h 3.38 V 147.7 Z M 224.33 145.29 c 5.71 0 10.59 -4.59 10.59 -10.78 c 0 -5.8 -4.5 -10.88 -10.59 -10.88 c -5.8 0 -10.83 4.21 -10.83 10.93 C 213.5 140.45 217.85 145.29 224.33 145.29 Z M 229.99 114.97 l -1.6 2.81 l -9.57 -5.17 l 1.55 -2.9 L 229.99 114.97 Z" />
                        <path class="st0" d="M 257.59 121.25 h 3.39 v 4.64 h 0.1 c 3.05 -4.35 7.44 -5.32 10.3 -5.32 c 8.66 0 14.22 6.77 14.22 13.83 c 0 7.59 -5.9 13.93 -14.22 13.93 c -2.76 0 -7.35 -0.97 -10.3 -5.27 h -0.1 v 13.93 h -3.39 V 121.25 Z M 271.37 123.62 c -6.09 0 -10.59 5.07 -10.59 10.88 c 0 6.19 4.89 10.78 10.59 10.78 c 6.48 0 10.83 -4.83 10.83 -10.73 C 282.2 127.83 277.18 123.62 271.37 123.62 Z" />
                        <path class="st0" d="M 292.79 135.71 c 0.24 5.17 5.07 9.57 10.25 9.57 c 4.83 -0.1 8.27 -2.95 9.48 -6.24 h 3.58 c -1.84 5.27 -6.92 9.28 -13.01 9.28 c -7.4 0 -13.78 -5.99 -13.78 -13.83 c 0 -7.49 6.05 -13.78 13.73 -13.92 c 5.8 0.05 9.91 3.48 11.8 6.77 c 1.55 2.52 2.08 5.08 2.08 7.4 c 0 0.34 -0.05 0.63 -0.05 0.97 H 292.79 Z M 313.44 132.66 c -1.06 -6.24 -6.14 -9.04 -10.35 -9.04 c -4.16 0 -9.33 2.81 -10.3 9.04 H 313.44 Z" />
                        <path class="st0" d="M 325.13 124.3 h -5.56 v -3.05 h 5.56 v -9.33 h 3.39 v 9.33 h 6.33 v 3.05 h -6.33 v 23.4 h -3.39 V 124.3 Z" />
                        <path class="st0" d="M 338.42 111.92 h 3.39 v 6.09 h -3.39 V 111.92 Z M 338.42 121.25 h 3.39 v 26.45 h -3.39 V 121.25 Z" />
                        <path class="st0" d="M 351.19 124.3 h -5.56 v -3.05 h 5.56 v -9.33 h 3.39 v 9.33 h 6.34 v 3.05 h -6.34 v 23.4 h -3.39 V 124.3 Z" />
                        <path class="st0" d="M 365.89 139.87 c 0.1 5.03 3.53 5.41 4.74 5.41 c 3.19 0 4.93 -1.89 4.93 -4.74 c 0 -3.63 -3.29 -4.45 -5.27 -5.27 c -2.71 -0.92 -7.01 -2.37 -7.01 -7.35 c 0 -3.72 2.66 -7.35 7.54 -7.35 c 3.92 0 7.2 3 7.2 7.11 v 0.1 h -3.39 c -0.24 -3.24 -2.47 -4.16 -3.97 -4.16 c -2.71 0 -4.01 2.18 -4.01 3.96 c 0 2.81 2.8 3.77 4.74 4.4 c 3.1 1.02 7.55 2.71 7.55 8.17 v 0.1 c 0 4.5 -2.76 8.08 -8.32 8.08 c -3.63 0 -8.12 -2.42 -8.12 -8.17 v -0.29 H 365.89 Z" />
                        <path class="st0" d="M 396.59 121.25 h 3.39 v 4.64 h 0.1 c 3.05 -4.35 7.45 -5.32 10.3 -5.32 c 8.66 0 14.22 6.77 14.22 13.83 c 0 7.59 -5.9 13.93 -14.22 13.93 c -2.76 0 -7.35 -0.97 -10.3 -5.27 h -0.1 v 13.93 h -3.39 V 121.25 Z M 410.37 123.62 c -6.09 0 -10.59 5.07 -10.59 10.88 c 0 6.19 4.88 10.78 10.59 10.78 c 6.48 0 10.83 -4.83 10.83 -10.73 C 421.2 127.83 416.17 123.62 410.37 123.62 Z" />
                        <path class="st0" d="M 429.6 121.25 h 3.39 v 3.82 h 0.1 c 1.6 -3.72 4.59 -4.3 7.45 -4.5 v 3.58 c -2.37 0.2 -4.4 1.06 -5.71 2.61 c -1.16 1.45 -1.84 3.34 -1.84 5.47 v 15.47 h -3.39 V 121.25 Z" />
                        <path class="st0" d="M 444.15 111.92 h 3.39 v 6.09 h -3.39 V 111.92 Z M 444.15 121.25 h 3.39 v 26.45 h -3.39 V 121.25 Z" />
                        <path class="st0" d="M 460.31 134.26 l -9.04 -13.01 h 4.06 l 6.97 10.2 l 6.92 -10.2 h 4.11 l -9.04 13.01 l 9.04 13.44 h -4.01 l -7.01 -10.59 l -7.01 10.59 h -4.01 L 460.31 134.26 Z" />
                    </g>
                </g>
                </svg>